<svg xmlns="http://www.w3.org/2000/svg" viewBox="0 0 64 64" role="img" aria-labelledby="title">
  <title id="title">Cyber Classica</title>
  <defs>
    <linearGradient id="frame" x1="0" y1="0" x2="1" y2="1">
      <stop offset="0" stop-color="#ff2a88"/>
      <stop offset="0.5" stop-color="#c214b9"/>
      <stop offset="1" stop-color="#00cfff"/>
    </linearGradient>
    <linearGradient id="letter" x1="0" y1="0" x2="0" y2="1">
      <stop offset="0" stop-color="#ff5ca8"/>
      <stop offset="0.48" stop-color="#ef178a"/>
      <stop offset="0.52" stop-color="#69e8ff"/>
      <stop offset="1" stop-color="#08aef0"/>
    </linearGradient>
    <filter id="glow" x="-35%" y="-35%" width="170%" height="170%">
      <feGaussianBlur stdDeviation="2.2" result="blur"/>
      <feMerge>
        <feMergeNode in="blur"/>
        <feMergeNode in="SourceGraphic"/>
      </feMerge>
    </filter>
  </defs>
  <rect width="64" height="64" rx="14" fill="#050716"/>
  <rect x="3" y="3" width="58" height="58" rx="12" fill="none" stroke="url(#frame)" stroke-width="3"/>
  <path d="M46 17H27l-8 8v14l8 8h19v-8H30l-3-3v-8l3-3h16z" fill="url(#letter)" filter="url(#glow)"/>
  <path d="M36 20 27 34h7l-5 11 12-16h-7z" fill="#fff4a8" filter="url(#glow)"/>
  <path d="M10 12h4v4h-4zm40 0h4v4h-4zM10 48h4v4h-4zm40 0h4v4h-4z" fill="#d7fbff"/>
</svg>
